<?xml version="1.0" encoding="UTF-8" standalone="no"?>
<!-- Created with Inkscape (http://www.inkscape.org/) -->

<svg
   version="1.1"
   id="svg1"
   width="111.19965"
   height="128"
   viewBox="0 0 111.19965 128"
   sodipodi:docname="IdentikLogo.svg"
   inkscape:version="1.3.2 (091e20e, 2023-11-25, custom)"
   xml:space="preserve"
   xmlns:inkscape="http://www.inkscape.org/namespaces/inkscape"
   xmlns:sodipodi="http://sodipodi.sourceforge.net/DTD/sodipodi-0.dtd"
   xmlns="http://www.w3.org/2000/svg"
   xmlns:svg="http://www.w3.org/2000/svg"><defs
     id="defs1" /><sodipodi:namedview
     id="namedview1"
     pagecolor="#505050"
     bordercolor="#ffffff"
     borderopacity="1"
     inkscape:showpageshadow="0"
     inkscape:pageopacity="0"
     inkscape:pagecheckerboard="1"
     inkscape:deskcolor="#505050"
     showgrid="false"
     inkscape:zoom="0.44203515"
     inkscape:cx="1748.7297"
     inkscape:cy="530.5008"
     inkscape:window-width="2400"
     inkscape:window-height="1261"
     inkscape:window-x="4791"
     inkscape:window-y="-9"
     inkscape:window-maximized="1"
     inkscape:current-layer="g1" /><g
     inkscape:groupmode="layer"
     inkscape:label="Image"
     id="g1"
     transform="translate(-890.71497,-368.86407)"><path
       style="fill:#00b8bf;fill-opacity:1;stroke-width:0.595773"
       d="m 941.2216,494.51047 c -12.95372,-7.0615 -30.22502,-21.27193 -39.48752,-32.48945 -3.12242,-3.78145 -7.88535,-13.48063 -9.6546,-19.66049 -1.32703,-4.63524 -1.36452,-5.46928 -1.36452,-30.35815 v -25.59199 l 3.57463,-2.54466 c 15.16935,-10.79856 40.46423,-16.78728 61.36456,-14.52846 16.63928,1.79831 32.07995,7.24568 43.08864,15.20139 l 3.17181,2.29223 -0.2591,25.67962 c -0.2949,29.22377 -0.4445,30.42789 -4.90936,39.51427 -1.48478,3.02161 -4.2533,7.44522 -6.15228,9.83024 -8.46297,10.62908 -27.57117,26.10765 -40.90817,33.13759 -1.96014,1.0332 -3.69794,1.87535 -3.86178,1.87144 -0.16384,-0.004 -2.23488,-1.06302 -4.60231,-2.35358 z m 7.15808,-7.25065 c 1.37955,-0.70019 3.67409,-2.07171 5.09895,-3.04782 l 2.59066,-1.77475 -2.88855,-2.95468 c -4.49456,-4.59748 -4.17468,-4.61494 -9.71267,0.52996 l -4.89327,4.54595 3.47561,1.97975 c 1.91158,1.08887 3.55331,1.98311 3.64829,1.98721 0.095,0.004 1.30141,-0.56543 2.68098,-1.26562 z m -7.20401,-14.93216 c 6.65487,-5.9174 8.72564,-5.84784 15.75745,0.52934 6.17136,5.59682 5.68056,5.39188 8.16496,3.40952 l 2.16546,-1.72785 -4.98618,-4.76939 c -5.39088,-5.15649 -9.15434,-10.45254 -11.07427,-15.584 -1.04148,-2.7836 -3.08168,-11.95449 -4.48306,-20.15175 l -0.40504,-2.36927 -3.08389,6.00155 c -4.97628,9.68431 -10.55373,16.34611 -20.71562,24.74307 l -5.98676,4.94698 2.12763,1.94982 c 1.17019,1.07239 2.36478,1.94981 2.65465,1.94981 0.92412,0 13.66229,-11.25554 16.89681,-14.93013 3.37326,-3.83223 5.51985,-4.54222 7.71813,-2.55281 2.36137,2.13701 1.49898,3.74074 -5.91081,10.99205 -3.85018,3.76783 -8.312,7.94675 -9.91515,9.28648 l -2.91483,2.43588 2.53835,1.83878 2.53836,1.83877 2.54722,-2.22036 c 1.40097,-1.2212 4.26593,-3.74862 6.36659,-5.61649 z m 34.51619,-5.02215 2.21476,-2.16266 -2.78542,-2.21547 c -4.19132,-3.33369 -8.1654,-7.84086 -9.8572,-11.17946 -0.89029,-1.7569 -2.26556,-6.69946 -3.34405,-12.01811 -1.00752,-4.96866 -2.3878,-10.51985 -3.0673,-12.33597 -2.37084,-6.33665 -6.83442,-9.75786 -12.73086,-9.75786 -6.14427,0 -9.81738,2.9978 -14.08982,11.4994 -4.81196,9.57517 -11.73629,17.87868 -20.51844,24.60526 -4.74486,3.63427 -4.81977,3.91068 -1.82018,6.71615 l 1.51251,1.41463 4.96202,-3.87462 c 10.58787,-8.26761 17.06464,-15.94391 21.57285,-25.56824 3.21914,-6.87236 4.85335,-8.53697 8.38106,-8.53697 1.92968,0 2.9942,0.37758 4.19919,1.48943 2.30235,2.12436 3.00547,4.14316 4.69935,13.49273 2.60488,14.37796 4.4807,18.17958 12.75527,25.85038 2.8146,2.60923 5.24886,4.74404 5.40947,4.74404 0.16061,0 1.28866,-0.97319 2.50679,-2.16266 z m 11.19755,-12.13587 c -0.0138,-0.16384 -1.30325,-1.27039 -2.86547,-2.459 -5.3936,-4.10368 -6.73138,-6.9609 -10.48802,-22.4002 -2.28453,-9.38914 -4.52404,-14.43842 -8.14729,-18.36918 -6.39333,-6.93596 -15.99575,-10.01556 -24.85836,-7.97236 -8.20968,1.89267 -14.39069,7.34131 -20.58008,18.1416 -2.25142,3.92867 -5.25441,8.65729 -6.67331,10.50805 -2.58766,3.37525 -11.34001,11.82718 -12.24757,11.82718 -0.26626,0 -0.48411,0.39306 -0.48411,0.87345 0,1.15356 1.88782,5.08428 2.44185,5.08428 1.05314,0 10.06777,-7.26056 12.99744,-10.4684 3.74079,-4.09597 5.87185,-7.33196 9.92246,-15.06709 3.38434,-6.46282 7.58092,-11.13 11.87403,-13.20554 3.43969,-1.66295 9.46259,-2.2376 13.12005,-1.2518 3.84281,1.03575 8.71793,4.32772 11.14127,7.52323 3.09405,4.07995 4.4286,7.89838 6.73965,19.28359 2.35492,11.60132 3.36376,13.55152 9.8282,18.99898 l 4.44953,3.74954 1.9274,-2.24922 c 1.06007,-1.23708 1.91612,-2.38328 1.90233,-2.54711 z m 5.4517,-10.61224 1.3072,-4.05874 -2.0434,-2.67697 c -2.76021,-3.61609 -4.38115,-7.57662 -5.84216,-14.27455 -1.399,-6.41357 -4.22678,-12.7768 -8.07364,-18.16769 -11.01243,-15.43253 -32.97693,-20.25165 -50.63203,-11.10891 -5.78184,2.99414 -12.8673,10.15347 -16.63845,16.81194 -4.02374,7.10445 -8.86425,14.28313 -11.02211,16.34626 -1.58847,1.51874 -1.82465,2.1482 -1.78831,4.76618 0.083,5.97937 0.42319,5.99628 5.99327,0.29802 3.96988,-4.06123 5.9527,-6.78791 9.72454,-13.37266 7.76649,-13.55851 14.74802,-19.72676 25.36711,-22.4121 16.52529,-4.1789 33.91717,6.02529 39.53549,23.19633 0.82472,2.52057 2.34936,8.06811 3.38809,12.32789 1.03872,4.25977 2.11962,8.35566 2.402,9.10197 0.56215,1.48574 5.76401,7.28177 6.53529,7.28177 0.26394,0 1.06814,-1.82643 1.78711,-4.05874 z m 2.33498,-35.11329 v -18.91578 l -2.82878,-1.92288 c -15.86285,-10.78289 -42.53564,-15.11883 -64.92337,-10.55399 -9.37631,1.91182 -23.42485,7.53725 -27.73548,11.10604 l -1.65577,1.37083 0.16634,13.92313 0.16635,13.92313 4.07394,-7.12223 c 2.24066,-3.91724 5.42296,-8.9236 7.07177,-11.12527 9.4033,-12.55626 26.69344,-19.79948 42.30219,-17.72131 21.22519,2.82593 36.0684,16.88583 41.32861,39.14759 0.88457,3.74358 1.70465,6.80651 1.8224,6.80651 0.11775,0 0.2136,-8.5121 0.21295,-18.91577 z"
       id="path9-4"
       inkscape:label="identik_icon_shield_128" /></g></svg>
