<?xml version="1.0" encoding="UTF-8" standalone="no"?>
<!-- Created with Inkscape (http://www.inkscape.org/) -->

<svg
   version="1.1"
   id="svg1"
   width="222.39929"
   height="255.99998"
   viewBox="0 0 222.39929 255.99998"
   sodipodi:docname="IdentikLogo.svg"
   inkscape:version="1.3.2 (091e20e, 2023-11-25, custom)"
   xml:space="preserve"
   xmlns:inkscape="http://www.inkscape.org/namespaces/inkscape"
   xmlns:sodipodi="http://sodipodi.sourceforge.net/DTD/sodipodi-0.dtd"
   xmlns="http://www.w3.org/2000/svg"
   xmlns:svg="http://www.w3.org/2000/svg"><defs
     id="defs1" /><sodipodi:namedview
     id="namedview1"
     pagecolor="#505050"
     bordercolor="#ffffff"
     borderopacity="1"
     inkscape:showpageshadow="0"
     inkscape:pageopacity="0"
     inkscape:pagecheckerboard="1"
     inkscape:deskcolor="#505050"
     showgrid="false"
     inkscape:zoom="0.44203515"
     inkscape:cx="1748.7297"
     inkscape:cy="530.5008"
     inkscape:window-width="2400"
     inkscape:window-height="1261"
     inkscape:window-x="4791"
     inkscape:window-y="-9"
     inkscape:window-maximized="1"
     inkscape:current-layer="g1" /><g
     inkscape:groupmode="layer"
     inkscape:label="Image"
     id="g1"
     transform="translate(-768.96216,-27.262245)"><path
       style="fill:#00b8bf;fill-opacity:1;stroke-width:1.19154"
       d="M 869.97543,278.55505 C 844.068,264.43207 809.5254,236.0112 791.0004,213.57616 c -6.24484,-7.5629 -15.7707,-26.96124 -19.3092,-39.32097 -2.65407,-9.27047 -2.72904,-10.93856 -2.72904,-60.71631 V 62.354883 l 7.14927,-5.0893 c 30.3387,-21.5971 80.92844,-33.5746 122.72911,-29.0569 33.27854,3.5966 64.15988,14.4913 86.17724,30.4028 l 6.3437,4.5844 -0.51825,51.359297 c -0.5898,58.44752 -0.889,60.85576 -9.81875,79.0285 -2.96953,6.04322 -8.50657,14.89044 -12.30453,19.66048 -16.92593,21.25817 -55.14234,52.2153 -81.81633,66.27519 -3.92029,2.06639 -7.39589,3.75068 -7.72357,3.74287 -0.32768,-0.008 -4.46976,-2.12604 -9.20462,-4.70717 z m 14.31616,-14.50129 c 2.75911,-1.40038 7.34818,-4.14342 10.1979,-6.09564 l 5.18133,-3.54949 -5.7771,-5.90937 c -8.98912,-9.19496 -8.34937,-9.22987 -19.42534,1.05993 l -9.78654,9.09188 6.95122,3.95951 c 3.82316,2.17774 7.10662,3.96622 7.29658,3.97442 0.18994,0.008 2.60282,-1.13086 5.36195,-2.53124 z m -14.40802,-29.86431 c 13.30974,-11.83481 17.45129,-11.69568 31.5149,1.05867 12.34271,11.19365 11.36112,10.78376 16.32992,6.81905 l 4.33091,-3.45571 -9.97236,-9.53878 c -10.78175,-10.31297 -18.30866,-20.90507 -22.14853,-31.168 -2.08295,-5.5672 -6.16336,-23.90897 -8.96611,-40.30349 l -0.81009,-4.73854 -6.16778,12.00311 c -9.95255,19.36862 -21.10745,32.6922 -41.43122,49.48613 l -11.97353,9.89395 4.25525,3.89964 c 2.34039,2.14479 4.72958,3.89963 5.30931,3.89963 1.84824,0 27.32458,-22.51108 33.79361,-29.86027 6.74653,-7.66446 11.03971,-9.08444 15.43626,-5.10562 4.72274,4.27402 2.99797,7.48149 -11.82162,21.98411 -7.70036,7.53566 -16.624,15.89349 -19.8303,18.57296 l -5.82966,4.87176 5.07671,3.67755 5.07671,3.67754 5.09444,-4.44072 c 2.80194,-2.4424 8.53186,-7.49724 12.73318,-11.23297 z m 69.03237,-10.0443 4.42953,-4.32533 -5.57084,-4.43094 c -8.38264,-6.66737 -16.33081,-15.68171 -19.7144,-22.35892 -1.78059,-3.5138 -4.53113,-13.39892 -6.6881,-24.03621 -2.01503,-9.93732 -4.7756,-21.0397 -6.13459,-24.67193 -4.7417,-12.67333 -13.66884,-19.51573 -25.46172,-19.51573 -12.28855,0 -19.63476,5.9956 -28.17965,22.9988 -9.62391,19.15033 -23.47257,35.75736 -41.03687,49.21052 -9.48971,7.26853 -9.63954,7.82135 -3.64036,13.43229 l 3.02502,2.82927 9.92403,-7.74925 c 21.17574,-16.53521 34.12929,-31.88781 43.14571,-51.13648 6.43827,-13.74475 9.70669,-17.07395 16.76212,-17.07395 3.85935,0 5.98839,0.7552 8.39838,2.9789 4.60469,4.24871 6.01093,8.28629 9.39869,26.98544 5.20977,28.75591 8.9614,36.35916 25.51054,51.70076 5.6292,5.21845 10.49772,9.48808 10.81893,9.48808 0.32122,0 2.57734,-1.94639 5.01358,-4.32532 z m 22.39511,-24.27175 c -0.0276,-0.32768 -2.6065,-2.54077 -5.73095,-4.91799 -10.78719,-8.20736 -13.46275,-13.9218 -20.97602,-44.80041 -4.56907,-18.77831 -9.04808,-28.87681 -16.29458,-36.73832 -12.78667,-13.871997 -31.99151,-20.031197 -49.71673,-15.944797 -16.41936,3.785397 -28.78138,14.682697 -41.16015,36.283207 -4.50285,7.8574 -10.50883,17.31463 -13.34662,21.01615 -5.17531,6.75049 -22.68001,23.65436 -24.49514,23.65436 -0.53251,0 -0.96821,0.7861 -0.96821,1.7469 0,2.30711 3.77563,10.16855 4.88369,10.16855 2.10628,0 20.13553,-14.52111 25.99488,-20.93681 7.48158,-8.19194 11.7437,-14.66391 19.84492,-30.13415 6.76867,-12.9257 15.16184,-22.26001 23.74805,-26.41111 6.87938,-3.3259 18.92519,-4.4752 26.24011,-2.5036 7.68561,2.0715 17.43585,8.65541 22.28253,15.04651 6.18811,8.1599 8.8572,15.7967 13.4793,38.56713 4.70983,23.20266 6.72751,27.10305 19.65639,37.99797 l 8.89908,7.49908 3.85479,-4.49845 c 2.12014,-2.47415 3.83223,-4.76655 3.80466,-5.09422 z m 10.90338,-21.22446 2.61441,-8.11748 -4.08676,-5.35395 c -5.52045,-7.23219 -8.76232,-15.15324 -11.68436,-28.54912 -2.79799,-12.8271 -8.45356,-25.55361 -16.14728,-36.33541 C 920.88559,69.427983 876.9566,59.789683 841.64639,78.075183 c -11.56368,5.9883 -25.73459,20.307 -33.27689,33.623897 -8.04749,14.20891 -17.72851,28.56631 -22.04422,32.69253 -3.17695,3.03748 -3.6493,4.2964 -3.57661,9.53236 0.16601,11.95873 0.84637,11.99256 11.98653,0.59604 7.93975,-8.12246 11.90541,-13.57582 19.44908,-26.74532 15.53299,-27.11701 29.49603,-39.453507 50.73422,-44.824207 33.05058,-8.3578 67.83433,12.0506 79.07097,46.392707 1.64944,5.0411 4.69873,16.13619 6.77617,24.65574 2.07745,8.51954 4.23926,16.71132 4.80401,18.20394 1.12431,2.97149 11.52803,14.56354 13.07059,14.56354 0.52788,0 2.13626,-3.65286 3.57419,-8.11747 z m 4.66998,-70.22656 -0.002,-37.831597 -5.65754,-3.8457 c -31.72571,-21.5658 -85.07129,-30.2377 -129.84676,-21.108 -18.75261,3.8236 -46.84969,15.0745 -55.47094,22.2121 l -3.31154,2.7416 0.33267,27.8463 0.33269,27.846207 8.14789,-14.24441 c 4.48132,-7.8345 10.84593,-17.847197 14.14355,-22.250597 18.80658,-25.1125 53.38686,-39.5989 84.60437,-35.4426 42.45037,5.6519 72.13679,33.7717 82.65721,78.295207 1.76913,7.4871 3.40929,13.613 3.6448,13.613 0.23551,0 0.42717,-17.0242 0.4259,-37.83151 z"
       id="path9-5" /></g></svg>
