<?xml version="1.0" encoding="UTF-8" standalone="no"?>
<!-- Created with Inkscape (http://www.inkscape.org/) -->

<svg
   version="1.1"
   id="svg1"
   width="55.599792"
   height="64"
   viewBox="0 0 55.599792 64"
   sodipodi:docname="IdentikLogo.svg"
   inkscape:version="1.3.2 (091e20e, 2023-11-25, custom)"
   xml:space="preserve"
   xmlns:inkscape="http://www.inkscape.org/namespaces/inkscape"
   xmlns:sodipodi="http://sodipodi.sourceforge.net/DTD/sodipodi-0.dtd"
   xmlns="http://www.w3.org/2000/svg"
   xmlns:svg="http://www.w3.org/2000/svg"><defs
     id="defs1" /><sodipodi:namedview
     id="namedview1"
     pagecolor="#505050"
     bordercolor="#ffffff"
     borderopacity="1"
     inkscape:showpageshadow="0"
     inkscape:pageopacity="0"
     inkscape:pagecheckerboard="1"
     inkscape:deskcolor="#505050"
     showgrid="false"
     inkscape:zoom="0.44203515"
     inkscape:cx="1748.7297"
     inkscape:cy="530.5008"
     inkscape:window-width="2400"
     inkscape:window-height="1261"
     inkscape:window-x="4791"
     inkscape:window-y="-9"
     inkscape:window-maximized="1"
     inkscape:current-layer="g1" /><g
     inkscape:groupmode="layer"
     inkscape:label="Image"
     id="g1"
     transform="translate(-908.26227,-551.29242)"><path
       style="fill:#00b8bf;fill-opacity:1;stroke-width:0.297886"
       d="m 933.51558,614.1156 c -6.47686,-3.53075 -15.11251,-10.63596 -19.74376,-16.24472 -1.56121,-1.89073 -3.94268,-6.74032 -4.8273,-9.83025 -0.66352,-2.31762 -0.68226,-2.73464 -0.68226,-15.17907 v -12.796 l 1.78731,-1.27233 c 7.58468,-5.39927 20.23212,-8.39363 30.68228,-7.26422 8.31964,0.89915 16.03996,3.62284 21.54431,7.60069 l 1.5859,1.14611 -0.12955,12.83981 c -0.14745,14.61189 -0.22225,15.21395 -2.45465,19.75714 -0.7424,1.5108 -2.12665,3.72261 -3.07615,4.91512 -4.23149,5.31454 -13.78559,13.05382 -20.45409,16.56879 -0.98007,0.5166 -1.84897,0.93768 -1.93089,0.93572 -0.0819,-0.002 -1.11744,-0.53151 -2.30115,-1.17679 z m 3.57904,-3.62532 c 0.68977,-0.3501 1.83704,-1.03586 2.54947,-1.52391 l 1.29533,-0.88738 -1.44427,-1.47734 c -2.24728,-2.29874 -2.08734,-2.30747 -4.85634,0.26498 l -2.44663,2.27298 1.7378,0.98987 c 0.95579,0.54444 1.77666,0.99156 1.82415,0.99361 0.0475,0.002 0.6507,-0.28272 1.34049,-0.63281 z m -3.60201,-7.46608 c 3.32744,-2.9587 4.36282,-2.92392 7.87873,0.26467 3.08568,2.79841 2.84028,2.69594 4.08248,1.70476 l 1.08273,-0.86393 -2.49309,-2.38469 c -2.69544,-2.57825 -4.57717,-5.22627 -5.53714,-7.792 -0.52074,-1.3918 -1.54084,-5.97725 -2.24153,-10.07588 l -0.20252,-1.18463 -1.54194,3.00077 c -2.48814,4.84216 -5.27687,8.17306 -10.35781,12.37154 l -2.99338,2.47349 1.06381,0.97491 c 0.5851,0.53619 1.18239,0.9749 1.32733,0.9749 0.46206,0 6.83114,-5.62777 8.4484,-7.46506 1.68663,-1.91612 2.75993,-2.27111 3.85907,-1.27641 1.18068,1.06851 0.74949,1.87037 -2.95541,5.49603 -1.92509,1.88391 -4.156,3.97337 -4.95757,4.64324 l -1.45742,1.21794 1.26918,0.91939 1.26918,0.91938 1.27361,-1.11018 c 0.70048,-0.6106 2.13296,-1.87431 3.18329,-2.80824 z m 17.2581,-2.51108 1.10738,-1.08133 -1.39271,-1.10773 c -2.09566,-1.66685 -4.0827,-3.92043 -4.9286,-5.58973 -0.44515,-0.87845 -1.13278,-3.34973 -1.67203,-6.00906 -0.50376,-2.48433 -1.1939,-5.25992 -1.53365,-6.16798 -1.18542,-3.16833 -3.41721,-4.87893 -6.36543,-4.87893 -3.07213,0 -4.90869,1.4989 -7.04491,5.7497 -2.40598,4.78758 -5.86814,8.93934 -10.25922,12.30263 -2.37243,1.81713 -2.40988,1.95534 -0.91009,3.35807 l 0.75626,0.70732 2.48101,-1.93731 c 5.29393,-4.13381 8.53232,-7.97196 10.78642,-12.78412 1.60957,-3.43618 2.42668,-4.26849 4.19053,-4.26849 0.96484,0 1.4971,0.18879 2.0996,0.74472 1.15117,1.06218 1.50273,2.07158 2.34967,6.74636 1.30244,7.18898 2.24035,9.08979 6.37764,12.92519 1.4073,1.30462 2.62443,2.37202 2.70473,2.37202 0.0803,0 0.64433,-0.48659 1.2534,-1.08133 z m 5.59875,-6.06793 c -0.007,-0.0819 -0.6516,-0.6352 -1.43271,-1.2295 -2.6968,-2.05184 -3.36569,-3.48045 -5.24401,-11.2001 -1.14227,-4.69457 -2.26202,-7.21921 -4.07365,-9.18459 -3.19666,-3.46798 -7.99787,-5.00778 -12.42918,-3.98618 -4.10484,0.94633 -7.19534,3.67065 -10.29004,9.0708 -1.12571,1.96433 -2.6272,4.32864 -3.33665,5.25402 -1.29383,1.68763 -5.67001,5.91359 -6.12379,5.91359 -0.13313,0 -0.24205,0.19653 -0.24205,0.43673 0,0.57678 0.94391,2.54214 1.22092,2.54214 0.52657,0 5.03389,-3.63028 6.49872,-5.2342 1.8704,-2.04799 2.93593,-3.66598 4.96123,-7.53355 1.69217,-3.23141 3.79046,-5.565 5.93702,-6.60277 1.71984,-0.83147 4.73129,-1.1188 6.56002,-0.6259 1.92141,0.51788 4.35897,2.16386 5.57064,3.76162 1.54702,2.03997 2.2143,3.94919 3.36982,9.64179 1.17746,5.80066 1.68188,6.77576 4.9141,9.49949 l 2.22477,1.87477 0.96369,-1.12461 c 0.53005,-0.61854 0.95805,-1.19164 0.95115,-1.27355 z m 2.72585,-5.30612 0.6536,-2.02937 -1.0217,-1.33849 c -1.3801,-1.80804 -2.19055,-3.78831 -2.92105,-7.13727 -0.69951,-3.20679 -2.1134,-6.3884 -4.03683,-9.08385 -5.50621,-7.71626 -16.48846,-10.12582 -25.31601,-5.55445 -2.89092,1.49707 -6.43365,5.07673 -8.31923,8.40597 -2.01187,3.55222 -4.43212,7.14156 -5.51105,8.17313 -0.79424,0.75937 -0.91233,1.0741 -0.89416,2.38309 0.0415,2.98968 0.2116,2.99814 2.99664,0.14901 1.98494,-2.03062 2.97635,-3.39396 4.86227,-6.68633 3.88324,-6.77926 7.37401,-9.86338 12.68355,-11.20605 8.26265,-2.08945 16.95859,3.01264 19.76775,11.59816 0.41236,1.26029 1.17468,4.03406 1.69404,6.16395 0.51936,2.12988 1.05981,4.17783 1.201,4.55098 0.28108,0.74287 2.88203,3.64089 3.26763,3.64089 0.132,0 0.5341,-0.91322 0.89355,-2.02937 z m 1.1675,-17.55665 v -9.45789 l -1.4144,-0.96144 c -7.9314,-5.39144 -21.2678,-7.55941 -32.46166,-5.27699 -4.68816,0.95591 -11.71243,3.76862 -13.86774,5.55302 l -0.82789,0.68541 0.0832,6.96157 0.0832,6.96156 2.03697,-3.56111 c 1.12033,-1.95862 2.71148,-4.4618 3.53588,-5.56264 4.70165,-6.27813 13.34672,-9.89973 21.1511,-8.86065 10.61259,1.41296 18.03419,8.44291 20.66429,19.57379 0.4423,1.87179 0.85235,3.40326 0.9112,3.40326 0.0589,0 0.1068,-4.25605 0.1065,-9.45789 z"
       id="path9-4-7"
       inkscape:label="identik_icon_shield_64"
       inkscape:export-filename="web\identik_icon_shield_64.png"
       inkscape:export-xdpi="96.000015"
       inkscape:export-ydpi="96.000015" /></g></svg>
