<?xml version="1.0" encoding="UTF-8" standalone="no"?>
<!-- Created with Inkscape (http://www.inkscape.org/) -->

<svg
   version="1.1"
   id="svg1"
   width="300"
   height="86"
   viewBox="0 0 300 86"
   sodipodi:docname="IdentikLogo.svg"
   inkscape:version="1.3.2 (091e20e, 2023-11-25, custom)"
   xml:space="preserve"
   xmlns:inkscape="http://www.inkscape.org/namespaces/inkscape"
   xmlns:sodipodi="http://sodipodi.sourceforge.net/DTD/sodipodi-0.dtd"
   xmlns="http://www.w3.org/2000/svg"
   xmlns:svg="http://www.w3.org/2000/svg"><defs
     id="defs1" /><sodipodi:namedview
     id="namedview1"
     pagecolor="#505050"
     bordercolor="#ffffff"
     borderopacity="1"
     inkscape:showpageshadow="0"
     inkscape:pageopacity="0"
     inkscape:pagecheckerboard="1"
     inkscape:deskcolor="#505050"
     showgrid="false"
     inkscape:zoom="0.44203515"
     inkscape:cx="1748.7297"
     inkscape:cy="530.5008"
     inkscape:window-width="2400"
     inkscape:window-height="1261"
     inkscape:window-x="4791"
     inkscape:window-y="-9"
     inkscape:window-maximized="1"
     inkscape:current-layer="g1" /><g
     inkscape:groupmode="layer"
     inkscape:label="Image"
     id="g1"
     transform="translate(-2387.0886,-281.50369)"><g
       id="g2-9-1"
       transform="matrix(0.4072894,0,0,0.40094148,1825.7747,131.25762)"><path
         style="fill:#00b8bf;fill-opacity:1;stroke-width:0.998362"
         d="m 1462.8057,585.28427 c -21.7072,-11.83325 -50.6494,-35.6463 -66.171,-54.44398 -5.2323,-6.33674 -13.2138,-22.59006 -16.1786,-32.94593 -2.2238,-7.76747 -2.2866,-9.16511 -2.2866,-50.87247 v -42.8856 l 5.9902,-4.2642 c 25.42,-18.09561 67.8076,-28.13118 102.8312,-24.34597 27.8832,3.01351 53.7577,12.1419 72.2055,25.47362 l 5.3152,3.84119 -0.4342,43.03246 c -0.4942,48.97154 -0.7448,50.98934 -8.2269,66.21577 -2.4881,5.06345 -7.1275,12.47628 -10.3096,16.47296 -14.1817,17.81161 -46.2022,43.74972 -68.5516,55.5301 -3.2847,1.73137 -6.1968,3.1426 -6.4714,3.13604 -0.2745,-0.007 -3.745,-1.78134 -7.7122,-3.94399 z m 11.995,-12.15022 c 2.3119,-1.17334 6.1569,-3.47166 8.5446,-5.10737 l 4.3414,-2.97402 -4.8405,-4.9513 c -7.5318,-7.70419 -6.9958,-7.73344 -16.276,0.88809 l -8.1999,7.61784 5.8242,3.31755 c 3.2034,1.82467 5.9545,3.32318 6.1136,3.33006 0.1593,0.007 2.1809,-0.94752 4.4926,-2.12085 z m -12.072,-25.02247 c 11.1518,-9.91605 14.6219,-9.79948 26.4055,0.88703 10.3416,9.37884 9.5191,9.03541 13.6823,5.71349 l 3.6288,-2.89544 -8.3556,-7.99227 c -9.0337,-8.64095 -15.3403,-17.51577 -18.5576,-26.11478 -1.7453,-4.66461 -5.1641,-20.03266 -7.5125,-33.76916 l -0.6787,-3.9703 -5.1678,10.05707 c -8.3389,16.22842 -17.6853,27.39188 -34.7141,41.46304 l -10.0322,8.28986 3.5653,3.2674 c 1.961,1.79705 3.9628,3.26737 4.4486,3.26737 1.5485,0 22.8944,-18.86139 28.3147,-25.01906 5.6526,-6.42183 9.2499,-7.6116 12.9336,-4.27786 3.9569,3.58109 2.5118,6.26853 -9.9051,18.41986 -6.4518,6.31392 -13.9288,13.31671 -16.6152,15.56176 l -4.8845,4.08191 4.2536,3.08132 4.2536,3.0813 4.2685,-3.72075 c 2.3477,-2.04642 7.1487,-6.28173 10.6688,-9.41179 z m 57.8402,-8.41583 3.7115,-3.62407 -4.6677,-3.71257 c -7.0236,-5.58639 -13.6831,-13.13925 -16.5181,-18.73389 -1.4919,-2.94412 -3.7965,-11.22659 -5.6038,-20.13927 -1.6884,-8.3262 -4.0013,-17.62857 -5.14,-20.67191 -3.973,-10.61862 -11.4527,-16.35169 -21.3337,-16.35169 -10.2962,0 -16.4513,5.02356 -23.6109,19.27006 -8.0636,16.04551 -19.667,29.96007 -34.3837,41.2321 -7.951,6.09009 -8.0766,6.55329 -3.0501,11.25454 l 2.5346,2.37056 8.3151,-6.49288 c 17.7425,-13.85438 28.5959,-26.71789 36.1505,-42.84581 5.3945,-11.51631 8.133,-14.30577 14.0445,-14.30577 3.2337,0 5.0176,0.63274 7.0368,2.4959 3.8582,3.5599 5.0364,6.94288 7.8749,22.61036 4.3651,24.09377 7.5085,30.46432 21.3746,43.31861 4.7165,4.37239 8.7957,7.94979 9.0648,7.94979 0.2692,0 2.1595,-1.63082 4.2007,-3.62406 z m 18.7643,-20.33662 c -0.023,-0.27455 -2.1839,-2.12883 -4.8018,-4.12064 -9.0383,-6.87672 -11.28,-11.66468 -17.5752,-37.53699 -3.8282,-15.73379 -7.5812,-24.19508 -13.6528,-30.78204 -10.7136,-11.62287 -26.8047,-16.78349 -41.6562,-13.35962 -13.7573,3.17163 -24.1151,12.30215 -34.4869,30.40066 -3.7729,6.58346 -8.8051,14.50741 -11.1828,17.60881 -4.3363,5.65605 -19.0029,19.81931 -20.5238,19.81931 -0.4462,0 -0.8112,0.65867 -0.8112,1.46369 0,1.93306 3.1635,8.51994 4.0919,8.51994 1.7648,0 16.871,-12.16684 21.7804,-17.54236 6.2686,-6.86379 9.8397,-12.28647 16.6274,-25.24857 5.6714,-10.83003 12.7038,-18.65102 19.8979,-22.1291 5.764,-2.78668 15.8569,-3.74965 21.9858,-2.0977 6.4396,1.73566 14.609,7.25216 18.6699,12.60702 5.1848,6.83694 7.4212,13.23564 11.2939,32.31434 3.9463,19.44084 5.6368,22.70887 16.4696,31.83741 l 7.4563,6.28328 3.2298,-3.76913 c 1.7764,-2.07302 3.2109,-3.99376 3.1878,-4.26831 z m 9.1357,-17.78337 2.1905,-6.80141 -3.4242,-4.48592 c -4.6255,-6.05964 -7.3416,-12.69647 -9.7899,-23.92048 -2.3444,-10.74751 -7.083,-21.41064 -13.5294,-30.44439 -18.454,-25.86096 -55.2609,-33.93657 -84.8464,-18.61568 -9.6887,5.0174 -21.5622,17.01462 -27.8817,28.17249 -6.7427,11.90525 -14.8542,23.93486 -18.4702,27.39214 -2.6618,2.54503 -3.0576,3.59984 -2.9967,7.9869 0.139,10.01988 0.709,10.04822 10.0431,0.49941 6.6525,-6.80558 9.9753,-11.3748 16.2959,-22.40915 13.0146,-22.72059 24.7139,-33.05699 42.5088,-37.55694 27.6921,-7.00275 56.8364,10.09685 66.2513,38.8711 1.382,4.22383 3.9368,13.5201 5.6775,20.65838 1.7406,7.13829 3.5519,14.00194 4.0251,15.25258 0.9421,2.48972 9.659,12.20237 10.9515,12.20237 0.4423,0 1.79,-3.06063 2.9948,-6.8014 z m 3.9127,-58.84087 v -31.698 l -4.7402,-3.22224 c -26.5837,-18.06936 -71.2805,-25.33529 -108.7966,-17.68578 -15.7123,3.20372 -39.254,12.63049 -46.4775,18.61088 l -2.7746,2.29714 0.2787,23.3316 0.2787,23.3316 6.8269,-11.93504 c 3.7547,-6.56428 9.0875,-14.95366 11.8505,-18.64309 15.7575,-21.04107 44.7313,-33.17885 70.8875,-29.69637 35.568,4.73554 60.4414,28.29632 69.2562,65.60131 1.4823,6.27329 2.8565,11.40596 3.0539,11.40596 0.1974,0 0.3578,-14.26409 0.3568,-31.69797 z"
         id="path9-0-7-9" /><text
         xml:space="preserve"
         style="font-size:158.236px;font-family:'Baskerville Old Face';-inkscape-font-specification:'Baskerville Old Face';text-align:center;text-anchor:middle;fill:#ffffff;fill-opacity:1;stroke:none;stroke-width:8.10173;stroke-opacity:1"
         x="1889.4707"
         y="520.96063"
         id="text16-1-6"
         transform="scale(0.98255151,1.0177583)"><tspan
           sodipodi:role="line"
           id="tspan16-6-5"
           x="1889.4707"
           y="520.96063"
           style="font-style:normal;font-variant:normal;font-weight:normal;font-stretch:normal;font-size:158.236px;font-family:Poppins;-inkscape-font-specification:Poppins;fill:#ffffff;fill-opacity:1;stroke:none;stroke-width:8.10173">IDentik</tspan></text></g></g></svg>
